<svg version="1.1" xmlns="http://www.w3.org/2000/svg" width="64px"
     height="64px" viewBox="0,0,256,256">
    <g transform="">
        <g fill="none" fill-rule="nonzero" stroke="none" stroke-width="1" stroke-linecap="butt"
           stroke-linejoin="miter" stroke-miterlimit="10" stroke-dasharray="" stroke-dashoffset="0"
           font-family="none"  font-size="none"
           style="mix-blend-mode: normal;">
            <path d="M0,256v-256h256v256z" id="bgRectangle"/>
        </g>
        <g fill="#ffffff" fill-rule="nonzero" stroke="none" stroke-width="1" stroke-linecap="butt"
           stroke-linejoin="miter" stroke-miterlimit="10" stroke-dasharray="" stroke-dashoffset="0"
           font-family="none"  font-size="none"
           style="mix-blend-mode: normal;">
            <g transform="scale(4,4)">
                <path
                        d="M33.1543,4c-12.79662,0 -23,12.67008 -23,28c0,6.27688 1.70119,12.08638 4.58984,16.77539c0.00875,0.01455 0.01787,0.02888 0.02734,0.04297l1.69727,2.45898c0.00383,0.00655 0.00774,0.01307 0.01172,0.01953c0.00351,0.00526 0.00276,0.00316 0.00586,0.00781c0.0013,0.00196 0.0026,0.00391 0.00391,0.00586l0.00586,0.00781c0.01888,0.02702 0.03909,0.0531 0.06055,0.07813c0.02152,0.02587 0.04434,0.05064 0.06836,0.07422c0.9536,1.11269 2.24939,2.32163 4.00977,3.00781c0.40351,0.74506 0.90154,1.45456 1.57227,2.04492c1.07939,0.95008 4.53511,3.47656 10.94727,3.47656c8.36267,0 16.02974,-5.50207 20.04492,-14.1875c1.95976,-4.23936 -0.78565,-9.46324 -5.87305,-9.94336c-2.94554,-0.27744 -5.63224,1.47898 -6.85156,4.10352c-1.7841,3.83544 -4.66838,6.02734 -7.32031,6.02734c-2.28813,0 -4.50572,-1.46262 -6.20117,-4.00586c-1.69546,-2.54324 -2.79883,-6.11636 -2.79883,-9.99414c0,-3.87778 1.10337,-7.4509 2.79883,-9.99414c1.69546,-2.54324 3.91304,-4.00586 6.20117,-4.00586c2.67392,0 5.43563,2.07481 7.25391,5.88867c1.73979,3.64472 6.26669,5.09249 9.82617,3.04492c3.25054,-1.86953 4.29634,-6.04762 2.66992,-9.36523c-1.09471,-2.23387 -2.41372,-4.23507 -3.91602,-5.97266c-0.19596,-0.23386 -0.48796,-0.36548 -0.79297,-0.35742c-0.3888,0.01045 -0.73628,0.24537 -0.89085,0.60227c-0.15457,0.3569 -0.08821,0.77106 0.17015,1.06179c1.3837,1.60041 2.60952,3.45874 3.63281,5.54688c1.18558,2.41839 0.41632,5.43553 -1.86914,6.75c-2.58052,1.48443 -5.77318,0.4514 -7.02539,-2.17187c-2.03772,-4.27414 -5.37251,-7.02734 -9.05859,-7.02734c-3.13287,0 -5.91594,1.97248 -7.86523,4.89648c-1.94929,2.92401 -3.13477,6.8503 -3.13477,11.10352c0,4.25322 1.18547,8.17951 3.13477,11.10352c1.94929,2.92401 4.73236,4.89648 7.86523,4.89648c3.71207,0 7.12686,-2.86703 9.13477,-7.18359c0,-0.00065 0,-0.0013 0,-0.00195c0.89268,-1.92146 2.80515,-3.14764 4.84961,-2.95508c3.83461,0.36189 5.65438,4.06264 4.24414,7.11328c-3.74481,8.10062 -10.74318,13.02734 -18.22852,13.02734c-5.89585,0 -8.78643,-2.2405 -9.625,-2.97852c-0.04503,-0.03963 -0.05445,-0.08329 -0.09766,-0.12305c1.72543,-0.09733 3.32996,-1.22506 3.51953,-3.04102c0,-0.00065 0,-0.0013 0,-0.00195c0.22963,-2.21514 -1.66695,-4.13458 -3.9043,-3.91016c-1.77982,0.17898 -2.98343,1.71523 -3.14453,3.37109c-0.0201,0.20651 0.09838,0.37836 0.10156,0.58008c-0.71762,-0.5071 -1.34268,-1.11604 -1.89844,-1.76953l-1.6582,-2.40234l-0.00195,-0.00195c-2.68448,-4.35858 -4.29102,-9.80854 -4.29102,-15.72266c0,-14.44608 9.53462,-26 21,-26c1.81483,0 4.93347,0.7208 6.7793,1.62695c4.02164,1.97387 4.06641,7.15905 4.06641,7.37305c-0.0051,0.36064 0.18438,0.69608 0.49587,0.87789c0.3115,0.18181 0.69676,0.18181 1.00825,0c0.3115,-0.18181 0.50097,-0.51725 0.49587,-0.87789c0,-0.214 0.04476,-6.60184 -5.18359,-9.16797c-2.22818,-1.09385 -5.37294,-1.83203 -7.66211,-1.83203zM23.24609,49.93555c1.03265,-0.10358 1.81922,0.70798 1.71484,1.71484c-0.08541,0.80772 -0.91791,1.42969 -1.81445,1.37695c-0.42618,-0.02501 -0.6867,-0.25111 -1.05664,-0.3457c-0.09384,-0.38156 -0.2382,-0.74936 -0.19727,-1.16992c0.0829,-0.85214 0.62733,-1.50315 1.35352,-1.57617z"/>
            </g>
        </g>
    </g>
</svg>